<svg viewBox="0 0 24 24" fill="currentColor" xmlns="http://www.w3.org/2000/svg">
  <title id="coding-house-icon-title">Coding House</title>
  <path
    d="M11.52 4.05044C11.6655 4.12456 11.7988 4.20019 11.936 4.28588C12.0269 4.34072 12.1179 4.39535 12.209 4.44984C12.261 4.48096 12.313 4.51208 12.3666 4.54414C12.726 4.7553 13.0915 4.95703 13.456 5.16034C13.6227 5.25348 13.7894 5.34669 13.956 5.43992C13.9979 5.46334 14.0397 5.48676 14.0829 5.51089C14.61 5.80603 15.1351 6.10437 15.6601 6.40281C15.729 6.442 15.798 6.48119 15.869 6.52157C15.9285 6.55542 15.988 6.58928 16.0493 6.62416C16.331 6.78356 16.6136 6.94157 16.896 7.09987C16.9171 6.40927 16.9382 5.71866 16.96 5.00713C18.6285 5.00713 20.297 5.00713 22.016 5.00713C22.0371 6.60539 22.0582 8.20365 22.08 9.85034C22.6502 10.1463 23.2205 10.4423 23.808 10.7472C23.8714 10.7867 23.9347 10.8262 24 10.8668C24 10.9063 24 10.9457 24 10.9864C22.9018 10.9864 21.8035 10.9864 20.672 10.9864C20.672 9.40787 20.672 7.82935 20.672 6.20298C19.8906 6.20298 19.1091 6.20298 18.304 6.20298C18.304 7.32768 18.304 8.45239 18.304 9.61117C18.0465 9.51493 17.8332 9.41554 17.5963 9.28488C17.5409 9.25446 17.5409 9.25446 17.4844 9.22343C17.3641 9.1573 17.2441 9.09088 17.124 9.02445C17.04 8.97821 16.9561 8.93198 16.8721 8.88577C16.6625 8.77036 16.453 8.65471 16.2436 8.53897C16.0765 8.44664 15.9092 8.35449 15.742 8.26233C15.457 8.1052 15.1722 7.94781 14.8874 7.79032C14.7186 7.69704 14.5498 7.60386 14.381 7.51072C14.2959 7.46373 14.2959 7.46373 14.209 7.4158C14.0942 7.35247 13.9794 7.28916 13.8646 7.22585C13.5665 7.06136 13.2687 6.89652 12.9712 6.73107C12.814 6.64367 12.6568 6.55636 12.4996 6.46905C12.4233 6.42666 12.3471 6.38421 12.2709 6.34173C12.164 6.28213 12.057 6.2227 11.95 6.16328C11.8886 6.12908 11.8272 6.09489 11.7639 6.05966C11.579 5.96117 11.3911 5.8717 11.2 5.78443C11.1686 5.80523 11.1372 5.82603 11.1049 5.84746C10.2507 6.41252 9.38391 6.95706 8.508 7.49226C7.7336 7.96592 6.9626 8.44308 6.19989 8.93303C5.61869 9.30611 5.03284 9.67286 4.448 10.0409C4.32258 10.1199 4.19716 10.1989 4.07175 10.2779C3.84489 10.4207 3.61802 10.5636 3.39113 10.7064C3.34633 10.7346 3.30154 10.7628 3.25538 10.7918C3.03332 10.9313 2.9197 11.0014 2.65195 11C2.56356 11 2.56356 11 2.47339 11C2.40998 10.9993 2.34658 10.9987 2.28125 10.9981C2.18364 10.9978 2.18364 10.9978 2.08406 10.9976C1.87603 10.9969 1.66802 10.9954 1.46 10.9939C1.31904 10.9933 1.17808 10.9927 1.03713 10.9922C0.691411 10.9909 0.345707 10.9889 0 10.9864C0 10.9469 0 10.9075 0 10.8668C0.142182 10.7687 0.284477 10.6783 0.433 10.5891C0.479267 10.5609 0.525533 10.5326 0.573202 10.5035C0.674706 10.4416 0.776346 10.3798 0.8781 10.3183C1.0424 10.2189 1.20634 10.119 1.3702 10.0189C1.60403 9.87621 1.83798 9.73368 2.07203 9.59129C2.65588 9.23587 3.23802 8.87803 3.82 8.51995C3.87814 8.48421 3.93628 8.44847 3.99618 8.41164C4.96546 7.81555 5.92821 7.21075 6.8891 6.60293C7.56158 6.17771 8.2341 5.75442 8.92384 5.35385C9.24215 5.16842 9.55324 4.97526 9.862 4.77636C9.94141 4.72556 10.0208 4.67478 10.1003 4.62401C10.2543 4.52553 10.4072 4.4258 10.5598 4.3253C10.6291 4.28092 10.6985 4.23654 10.77 4.19081C10.8314 4.15074 10.8928 4.11066 10.9561 4.06937C11.1784 3.9721 11.287 3.98798 11.52 4.05044Z" />
  <path
    d="M9.08105 15.3682L10.4824 15.8125C10.2676 16.5938 9.90951 17.1748 9.4082 17.5557C8.91016 17.9333 8.27702 18.1221 7.50879 18.1221C6.55827 18.1221 5.77702 17.7982 5.16504 17.1504C4.55306 16.4993 4.24707 15.6107 4.24707 14.4844C4.24707 13.293 4.55469 12.3685 5.16992 11.7109C5.78516 11.0501 6.59408 10.7197 7.59668 10.7197C8.47233 10.7197 9.18359 10.9785 9.73047 11.4961C10.056 11.8021 10.3001 12.2415 10.4629 12.8145L9.03223 13.1562C8.94759 12.7852 8.77018 12.4922 8.5 12.2773C8.23307 12.0625 7.90755 11.9551 7.52344 11.9551C6.99284 11.9551 6.56152 12.1455 6.22949 12.5264C5.90072 12.9072 5.73633 13.5241 5.73633 14.377C5.73633 15.2819 5.89909 15.9264 6.22461 16.3105C6.55013 16.6947 6.97331 16.8867 7.49414 16.8867C7.87826 16.8867 8.20866 16.7646 8.48535 16.5205C8.76204 16.2764 8.96061 15.8923 9.08105 15.3682ZM11.7324 18V10.8418H13.1777V13.6592H16.0098V10.8418H17.4551V18H16.0098V14.8701H13.1777V18H11.7324Z" />
</svg>
