<svg viewBox="0 0 24 24" fill="currentColor" xmlns="http://www.w3.org/2000/svg">
  <title id="gmail-icon-title">Email</title>
  <path
    d="M18.73 5.41L17.45 6.41L12 10.46L6.55 6.37L5.27 5.37C4.96846 5.12055 4.60035 4.96504 4.21129 4.92275C3.82223 4.88046 3.42931 4.95324 3.08121 5.13208C2.73311 5.31092 2.44513 5.58796 2.25294 5.92887C2.06075 6.26979 1.97281 6.65959 2 7.05V18.64C2 19.0007 2.14329 19.3466 2.39833 19.6017C2.65338 19.8567 2.99931 20 3.36 20H6.55V12.28L12 16.37L17.45 12.28V20H20.64C21.0007 20 21.3466 19.8567 21.6017 19.6017C21.8567 19.3466 22 19.0007 22 18.64V7.05C22.0188 6.66296 21.9247 6.2788 21.7293 5.94422C21.5338 5.60964 21.2453 5.33905 20.899 5.16533C20.5526 4.99161 20.1632 4.92226 19.7782 4.9657C19.3931 5.00913 19.029 5.16349 18.73 5.41Z" />
</svg>
