<svg viewBox="0 0 24 24" fill="currentColor" xmlns="http://www.w3.org/2000/svg">
  <title id="gmail-icon-title">Email</title>
  <path
    d="M18.73 5.49896L17.45 6.49896L12 10.549L6.55 6.45896L5.27 5.45896C4.96846 5.20951 4.60035 5.054 4.21129 5.01171C3.82223 4.96942 3.42931 5.04221 3.08121 5.22105C2.73311 5.39989 2.44513 5.67692 2.25294 6.01784C2.06075 6.35875 1.97281 6.74856 2 7.13896V18.729C2 19.0897 2.14329 19.4356 2.39833 19.6906C2.65338 19.9457 2.99931 20.089 3.36 20.089H6.55V12.369L12 16.459L17.45 12.369V20.089H20.64C21.0007 20.089 21.3466 19.9457 21.6017 19.6906C21.8567 19.4356 22 19.0897 22 18.729V7.13896C22.0188 6.75192 21.9247 6.36777 21.7293 6.03319C21.5338 5.6986 21.2453 5.42801 20.899 5.25429C20.5526 5.08058 20.1632 5.01122 19.7782 5.05466C19.3931 5.09809 19.029 5.25245 18.73 5.49896Z" />
</svg>
