<svg viewBox="0 0 24 24" fill="currentColor" xmlns="http://www.w3.org/2000/svg">
  <title id="hackerone-icon-title">Hackerone</title>
  <path
    d="M8.62244 1.27313C8.31324 1.09067 7.97404 1 7.54254 1C7.0799 1 6.70955 1.09067 6.4315 1.27313C6.1546 1.45446 6 1.69699 6 2.00072V21.9698C6 22.2123 6.1546 22.4549 6.4315 22.6668C6.7407 22.8787 7.0799 23 7.51139 23C7.89789 23.0011 8.27517 22.8844 8.59129 22.6668C8.89934 22.4549 9.05394 22.2123 9.05394 21.9698V2.00072C9.08509 1.69699 8.93049 1.45446 8.62244 1.27313ZM11.1826 11.7575C10.998 11.9399 10.9045 12.1825 10.9668 12.5451C10.998 12.9089 11.1514 13.2421 11.4606 13.5458C11.7375 13.8484 12.0767 14.0604 12.4471 14.1522C12.8174 14.2428 13.0955 14.1816 13.2801 14.0309L14.9149 13.0302V21.9698C14.9149 22.2123 15.0695 22.4549 15.3476 22.6668C15.6245 22.8787 15.9948 23 16.4263 23C16.859 23 17.2293 22.8787 17.5374 22.6668C17.8454 22.4549 18 22.2123 18 21.9698V9.90902C18 9.60643 17.8454 9.39449 17.5374 9.21203C17.2293 9.0307 16.859 8.94003 16.3963 8.94003C15.9337 8.94003 15.5945 9.0307 15.3164 9.21203L11.1826 11.7575Z" />
</svg>
