<svg viewBox="0 0 24 24" fill="currentColor" xmlns="http://www.w3.org/2000/svg">
  <path
    d="M6.47679 21.9998H2.33036V8.6471H6.47679V21.9998ZM4.40134 6.82567C3.07545 6.82567 2 5.72745 2 4.40156C2 3.76469 2.253 3.1539 2.70334 2.70356C3.15367 2.25322 3.76446 2.00022 4.40134 2.00022C5.03821 2.00022 5.649 2.25322 6.09934 2.70356C6.54968 3.1539 6.80268 3.76469 6.80268 4.40156C6.80268 5.72745 5.72679 6.82567 4.40134 6.82567ZM21.9955 21.9998H17.858V15.4998C17.858 13.9507 17.8268 11.9641 15.7022 11.9641C13.5464 11.9641 13.2161 13.6471 13.2161 15.3882V21.9998H9.07411V8.6471H13.0509V10.4685H13.1089C13.6625 9.41942 15.0147 8.31227 17.0321 8.31227C21.2286 8.31227 22 11.0757 22 14.665V21.9998H21.9955Z" />
</svg>
