<svg
  xmlns="http://www.w3.org/2000/svg"
  fill="currentColor"
  viewBox="0 0 1000 650">
  <title id="lwt-icon-title">Lesbians Who Tech</title>
  <path
    d="M0,588.9l52.1-30.2c7.6,19.2,20.4,27.1,38.4,27.1s20.7-4.6,20.7-11c0-11-16.2-12.8-37.8-19.2-35.4-10.7-63.7-29.6-63.7-68.6s30.2-67.7,76.8-67.7,66.5,16.8,80.2,49.7l-50.6,29.6c-6.4-16.2-18-22.6-29.3-22.6s-16.2,5.2-16.2,11.3c0,9.5,10.4,12.8,34.8,19.8,33.5,9.8,66.8,22.6,66.8,67.1s-32.6,68.3-83.2,68.3S10.4,620.9,0,588.9Z" />
  <path
    d="M383.4,597.7l17.1,18.6-41.8,36.6-18.9-20.4c-14.3,6.4-30.8,10.1-47.9,10.1-63.1,0-113.1-48.5-113.1-111.6s50-111.6,113.1-111.6,113.1,48.5,113.1,111.6-7.9,48.2-21.6,66.8ZM294.1,582.8l-26.2-28.7,42.1-36.3,30.5,33.2c2.4-6.1,3.7-12.8,3.7-20.1,0-29.6-21.9-51.8-52.1-51.8s-52.1,22.3-52.1,51.8,21.9,51.8,52.1,51.8h2.1Z" />
  <path
    d="M426,566.3v-142.1h61v135.3c0,14.6,7.6,23.8,25.9,23.8s25.9-9.1,25.9-23.8v-135.3h61v142.1c0,45.7-35.4,76.2-86.9,76.2s-86.9-30.5-86.9-76.2Z" />
  <path
    d="M737,610.2h-61.6l-7.3,27.4h-65.5l68-213.4h71.3l68,213.4h-65.5l-7.3-27.4ZM723.9,561.4l-17.7-65.5-17.7,65.5h35.4Z" />
  <path
    d="M1011.3,530.9c0,60.4-44.8,106.7-103.6,106.7h-88.4v-213.4h88.4c58.8,0,103.6,46.3,103.6,106.7ZM950.3,530.9c0-28.3-18-47.6-42.7-47.6h-24.4v95.1h24.4c24.7,0,42.7-19.2,42.7-47.6Z" />
  <path d="M225.3,269.2v101.6H0V4.1h104.8v265.1h120.5Z" />
  <path
    d="M197.1,4.1h115.3l49.8,201.7L421.4,4.1h80.7l59.2,201.7L611,4.1h115.3l-103.7,366.7h-103.2l-57.6-195.9-57.6,195.9h-103.2L197.1,4.1Z" />
  <path d="M1013.8,105.8h-86.4v265.1h-104.8V105.8h-86.4V4.1h277.7v101.6Z" />
</svg>
