<svg xmlns="http://www.w3.org/2000/svg" fill="currentColor" viewBox="0 0 24 24">
  <title id="node-icon-title">Node</title>
  <path
    fill-rule="evenodd"
    clip-rule="evenodd"
    d="M21 7.08851L12 2L3 7.08851V15.9115L4.39339 16.6993L7.24059 15.5827C8.02506 15.2751 8.53851 14.5369 8.53851 13.7167V6.80292H9.92313V13.7167C9.92313 15.0837 9.06738 16.314 7.75992 16.8268L5.90528 17.5541L12 21L21 15.9115V7.08851ZM11.3077 9.48697C11.3077 8.00461 12.5475 6.80292 14.0769 6.80292H15.6923C17.0943 6.80292 18.2308 7.90447 18.2308 9.2633V9.48697H16.8462V9.2633C16.8462 8.64565 16.3296 8.14494 15.6923 8.14494H14.0769C13.3122 8.14494 12.6923 8.74579 12.6923 9.48697C12.6923 10.2281 13.3122 10.829 14.0769 10.829H15.4615C16.9909 10.829 18.2308 12.0307 18.2308 13.513C18.2308 14.9954 16.9909 16.1971 15.4615 16.1971H14.0769C12.5475 16.1971 11.3077 14.9954 11.3077 13.513H12.6923C12.6923 14.2542 13.3122 14.8551 14.0769 14.8551H15.4615C16.2262 14.8551 16.8462 14.2542 16.8462 13.513C16.8462 12.7719 16.2262 12.171 15.4615 12.171H14.0769C12.5475 12.171 11.3077 10.9693 11.3077 9.48697Z" />
</svg>
