<svg viewBox="0 0 24 24" fill="currentColor" xmlns="http://www.w3.org/2000/svg">
  <title id="phone-icon-title">Phone Number</title>
  <path
    d="M3.65389 3.86521L7.31007 3.02147C7.70733 2.93007 8.11513 3.13749 8.27685 3.51014L9.96431 7.44755C10.112 7.79208 10.0135 8.19636 9.72174 8.43191L7.59131 10.1756C8.85691 12.872 11.0682 15.115 13.8209 16.4052L15.5646 14.2748C15.8036 13.983 16.2044 13.8845 16.5489 14.0322L20.4864 15.7196C20.8625 15.8849 21.0699 16.2927 20.9785 16.6899L20.1348 20.3461C20.0469 20.7258 19.7094 21 19.3122 21C10.3088 21 3 13.7052 3 4.68784C3 4.2941 3.2707 3.95309 3.65389 3.86521Z" />
</svg>
