<svg
  width="24"
  height="24"
  viewBox="0 0 24 24"
  xmlns="http://www.w3.org/2000/svg">
  <title id="postgresql-icon-title">PostgreSQL</title>
  <path
    fill="currentColor"
    d="M17.7416 7.95186C17.7347 8.05521 17.6851 8.14656 17.61 8.20991L17.6093 8.21058C17.519 8.30593 17.3985 8.37261 17.2621 8.39595L17.2586 8.39661C17.2393 8.39928 17.2166 8.40128 17.1939 8.40128C17.1932 8.40128 17.1918 8.40128 17.1911 8.40128C16.9762 8.40128 16.7916 8.27525 16.713 8.09455L16.7116 8.09122C16.691 7.94385 16.939 7.8325 17.1946 7.79783C17.4502 7.76315 17.7209 7.80516 17.7416 7.95186ZM10.9145 8.29459C10.8311 8.50197 10.6265 8.64666 10.3868 8.64666C10.384 8.64666 10.382 8.64666 10.3792 8.64666H10.3799C10.3551 8.64666 10.3317 8.64466 10.3075 8.64199H10.3103C10.1305 8.61066 9.97756 8.51464 9.87629 8.38061L9.87491 8.37861C9.81842 8.31593 9.78398 8.23258 9.78398 8.14256V8.14189C9.79225 8.09055 9.82187 8.04654 9.8632 8.01854L9.86389 8.01787C9.96861 7.96186 10.094 7.92919 10.2276 7.92919C10.2848 7.92919 10.3406 7.93519 10.3944 7.94652L10.3895 7.94586C10.6616 7.98253 10.9427 8.10722 10.9159 8.29459H10.9145ZM18.5049 13.3909L18.4312 13.3016L18.4008 13.2649C18.7157 12.7008 18.9003 12.0293 18.9003 11.3172C18.9003 10.9918 18.8617 10.6757 18.7887 10.3717L18.7942 10.3997C18.746 10.0976 18.7177 9.74888 18.7177 9.39415C18.7177 9.38948 18.7177 9.38481 18.7177 9.38014C18.7336 9.04608 18.7701 8.73401 18.8266 8.42795L18.8197 8.47196C18.881 8.16257 18.9162 7.80649 18.9162 7.44242C18.9162 7.40841 18.9162 7.37507 18.9155 7.34173V7.34707C18.9237 7.3144 18.9286 7.27772 18.9286 7.23905C18.9286 7.22104 18.9272 7.20371 18.9258 7.18637V7.18837C18.6502 6.13483 18.1329 5.22198 17.4322 4.47249L17.4371 4.47783C16.8095 3.76569 16.0379 3.19157 15.1637 2.79549L15.1223 2.77882C15.6018 2.67947 16.1529 2.62279 16.7178 2.62279C16.7695 2.62279 16.8212 2.62346 16.8728 2.62412H16.8653C16.8963 2.62346 16.9321 2.62279 16.9686 2.62279C18.6068 2.62279 20.0659 3.36227 21.0097 4.51517L21.018 4.52584C21.0373 4.54984 21.0566 4.57718 21.0731 4.60585L21.0752 4.60919C21.698 5.73875 20.8375 9.83823 18.5042 13.3923L18.5049 13.3909ZM18.3078 7.54711C18.2968 7.8505 18.2638 8.13789 18.2114 8.41862L18.2169 8.38194C18.1632 8.66533 18.1246 9.00273 18.1087 9.34547L18.1081 9.36214C18.1081 9.37347 18.1081 9.38614 18.1081 9.39948C18.1081 9.77756 18.137 10.149 18.1935 10.5117L18.188 10.471C18.2465 10.7224 18.2803 11.0105 18.2803 11.3072C18.2803 11.816 18.1811 12.3027 17.9999 12.7488L18.0095 12.7221C17.9572 12.6348 17.9028 12.5294 17.8552 12.4201L17.8477 12.4007C17.8022 12.2947 17.7037 12.1234 17.568 11.8873C17.0382 10.9671 15.7968 8.8127 16.4319 7.93385C16.7585 7.48176 17.5866 7.46243 18.3072 7.54778L18.3078 7.54711ZM17.818 15.272C17.7829 14.5792 18.0495 14.5065 18.332 14.4298C18.371 14.4196 18.4098 14.4083 18.4484 14.3958C18.4828 14.4252 18.5207 14.4538 18.56 14.4792L18.5634 14.4812C18.9906 14.6632 19.4879 14.7686 20.0115 14.7686C20.4193 14.7686 20.8113 14.7045 21.1778 14.5859L21.1517 14.5932C20.9147 14.7886 20.6446 14.9559 20.3525 15.0853L20.3312 15.094C19.8875 15.27 19.3729 15.38 18.8342 15.3967H18.8273C18.7453 15.4087 18.6509 15.416 18.5552 15.416C18.2892 15.416 18.0357 15.3627 17.8063 15.2667L17.8187 15.2713L17.818 15.272ZM17.0513 16.6229C17.0368 16.7703 17.0203 16.9363 16.9982 17.1197L16.8728 17.4851C16.8632 17.5118 16.8577 17.5424 16.857 17.5744C16.8577 17.5925 16.8577 17.6131 16.8577 17.6338C16.8577 17.8705 16.8212 18.0999 16.7537 18.3153L16.7578 18.2986C16.6779 18.558 16.6228 18.8587 16.6042 19.1688L16.6035 19.1794C16.5677 20.3023 15.67 21.2112 14.5312 21.3092L14.5223 21.3099C13.2175 21.5806 12.986 20.8958 12.7821 20.2917C12.7614 20.2285 12.7394 20.1656 12.716 20.103C12.6057 19.6682 12.5424 19.1688 12.5424 18.6553C12.5424 18.4153 12.5561 18.1786 12.583 17.9452L12.5803 17.9739C12.5844 17.8885 12.5865 17.7878 12.5865 17.6871C12.5865 17.003 12.4804 16.3429 12.2826 15.7214L12.2957 15.7688C12.2994 15.5243 12.3049 15.2767 12.3123 15.0259C12.3123 15.0239 12.3123 15.0206 12.3123 15.0179C12.3123 14.9873 12.3074 14.9579 12.2985 14.9299L12.2992 14.9319C12.2895 14.8652 12.2764 14.8066 12.2592 14.7499L12.2613 14.7586C12.1642 14.4111 11.9196 14.1311 11.5972 13.9824L11.5896 13.9791C11.4684 13.9204 11.3251 13.8857 11.1728 13.8857C11.1012 13.8857 11.0316 13.893 10.9648 13.9077L10.971 13.9064C11.0591 13.593 11.1501 13.3369 11.2548 13.0876L11.2369 13.1362L11.2824 13.0182C11.3333 12.8848 11.3974 12.7468 11.4656 12.6008C11.8417 11.8513 12.0615 10.9705 12.0615 10.0396C12.0615 9.41415 11.9623 8.81136 11.7784 8.24458L11.7901 8.28659C11.664 7.54778 11.0082 6.991 10.2187 6.991C10.0947 6.991 9.97343 7.005 9.85769 7.03101L9.86871 7.02901C9.32034 7.09835 8.82433 7.25438 8.37309 7.48376L8.39721 7.47243C8.34026 7.50043 8.28399 7.52933 8.22842 7.55911C8.29111 6.12749 8.84568 4.8319 9.73093 3.81503L9.72267 3.82436C9.80396 3.74502 9.88938 3.66967 9.97756 3.59899L9.98376 3.59432C10.0313 3.58498 10.0733 3.56631 10.1091 3.54031L10.1085 3.54097C10.7236 3.10489 11.4959 2.84284 12.3316 2.84284C12.3984 2.84284 12.4645 2.84417 12.53 2.8475L12.521 2.84684C12.8834 2.85217 13.2333 2.87618 13.5778 2.91885L13.5316 2.91418C14.9391 3.17624 16.1405 3.88971 16.9982 4.88991L17.0058 4.89925C17.5211 5.4787 17.9386 6.1575 18.2224 6.89831L18.2376 6.94432C18.0605 6.89831 17.8573 6.87164 17.6479 6.87164C16.9707 6.87164 16.361 7.14903 15.9325 7.59245L15.9311 7.59379C15.0769 8.77602 16.3989 11.0711 17.0341 12.174C17.1505 12.3761 17.2511 12.5508 17.2827 12.6248C17.4619 13.0255 17.6871 13.3703 17.9579 13.6763L17.9531 13.671C18.013 13.7437 18.0709 13.8137 18.1156 13.875C17.7705 13.9711 17.1505 14.1938 17.207 15.306C17.1966 15.436 17.1705 15.6781 17.1353 15.9848C17.0981 16.1642 17.0678 16.3829 17.0506 16.6049L17.0492 16.6236L17.0513 16.6229ZM10.7119 12.8128L10.6665 12.9302C10.5721 13.1489 10.4743 13.427 10.393 13.7117L10.3799 13.7657C9.76469 13.757 9.21218 13.5023 8.82226 13.0982L8.82088 13.0969C8.38549 12.6521 8.1182 12.05 8.1182 11.3872C8.1182 11.2552 8.12853 11.1258 8.1492 10.9991L8.14713 11.0131C8.21396 10.533 8.25253 9.97893 8.25253 9.41548C8.25253 9.08075 8.23876 8.74935 8.21258 8.42128L8.21533 8.46463C8.2112 8.39328 8.20707 8.3306 8.205 8.28126C8.75957 7.87384 9.46157 7.62779 10.2228 7.62779C10.3137 7.62779 10.4033 7.63113 10.4922 7.63779L10.4805 7.63713C10.8621 7.72314 11.1494 8.02921 11.1949 8.40595L11.1956 8.40995C11.3595 8.89538 11.4539 9.45416 11.4539 10.0336C11.4539 10.8778 11.2534 11.6766 10.8966 12.3887L10.911 12.3567C10.8387 12.5121 10.7705 12.6588 10.7119 12.8115V12.8128ZM8.90906 16.1362C8.76784 16.1015 8.64383 16.0508 8.53085 15.9848L8.53705 15.9881C8.65555 15.9395 8.79539 15.8988 8.94007 15.8728L8.95315 15.8708C10.0582 15.6507 10.2283 15.4954 10.601 15.0373C10.6864 14.9326 10.7829 14.8132 10.9172 14.6685C10.9448 14.6385 10.9668 14.6025 10.9799 14.5625L10.9806 14.5605C11.1273 14.4345 11.2148 14.4692 11.3568 14.5258C11.5131 14.6092 11.6289 14.7499 11.6737 14.9172L11.6743 14.9219C11.6902 14.9653 11.6998 15.0146 11.6998 15.0666C11.6998 15.15 11.6757 15.228 11.6344 15.294L11.6358 15.292C11.1914 15.8801 10.4812 16.2582 9.67995 16.2582C9.40439 16.2582 9.13916 16.2135 8.89184 16.1308L8.90906 16.1362ZM3.73743 11.8973C3.28895 10.5737 2.92383 9.0034 2.7082 7.38708L2.69373 7.25438C2.65171 7.03967 2.62828 6.79229 2.62828 6.54024C2.62828 5.336 3.17183 4.25512 4.03435 3.51497L4.03848 3.51164C5.61953 2.42942 8.205 3.06088 9.29692 3.40295L9.28865 3.41095C8.23118 4.6592 7.5898 6.27285 7.5898 8.03054C7.5898 8.09055 7.59049 8.15056 7.59187 8.21058V8.20191C7.59187 8.27059 7.59738 8.36794 7.60565 8.5013C7.62838 8.77469 7.64147 9.09342 7.64147 9.41548C7.64147 9.95026 7.60565 10.477 7.53538 10.9938L7.54227 10.9331C7.51954 11.0705 7.50714 11.2292 7.50714 11.3905C7.50714 12.2114 7.83919 12.9575 8.38136 13.509L8.37998 13.5076C8.44933 13.5779 8.52167 13.6439 8.59699 13.7057C8.29869 14.0151 7.64974 14.6992 6.95945 15.5034C6.47102 16.0721 6.13345 15.9628 6.02254 15.9275C5.55063 15.6821 5.18069 15.3013 4.963 14.8399L4.9568 14.8252C4.48558 13.9904 4.07086 13.0195 3.76498 12.0033L3.73812 11.8986L3.73743 11.8973ZM21.9783 14.2691C21.9653 14.2311 21.9487 14.1984 21.9287 14.1684L21.9301 14.1704C21.8103 13.9511 21.5195 13.8857 21.0628 13.9771C19.6395 14.2611 19.0884 14.0864 18.8886 13.9611C20.0026 12.3261 20.8988 10.4324 21.4727 8.40928L21.5064 8.26992C21.74 7.39441 22.1933 5.334 21.6118 4.32713C21.5712 4.25245 21.5278 4.18844 21.4796 4.12843L21.4816 4.13109C20.4049 2.8275 18.7618 2 16.919 2C16.8666 2 16.8143 2.00067 16.7626 2.002H16.7702C16.7413 2.00133 16.7075 2.00133 16.6731 2.00133C15.7485 2.00133 14.8592 2.14803 14.029 2.41808L14.0876 2.40141C13.9402 2.37474 13.792 2.35207 13.6432 2.3334C13.3071 2.27139 12.9178 2.23271 12.5196 2.22671H12.5141C12.4569 2.22404 12.3901 2.22271 12.3226 2.22271C11.4167 2.22271 10.5742 2.48543 9.87216 2.93685L9.88869 2.92685C9.15087 2.65947 5.76626 1.55591 3.67129 2.9922C2.64551 3.83903 2 5.09062 2 6.4889C2 6.75895 2.02411 7.02367 2.07027 7.28106L2.06614 7.25372C2.29692 9.05274 2.67169 10.6717 3.19043 12.2287L3.13601 12.0393C3.47564 13.1836 3.89588 14.1738 4.41187 15.1066L4.36985 15.0239C4.66814 15.6801 5.18414 16.2002 5.82758 16.5076L5.84549 16.5156C5.96122 16.5482 6.09418 16.5676 6.23197 16.5676C6.74314 16.5676 7.19093 16.3069 7.44169 15.9148L7.44513 15.9088C8.13473 15.106 8.814 14.3871 9.11918 14.0697C9.46501 14.2558 9.87491 14.3705 10.3117 14.3838H10.3158L10.3165 14.3871C10.2439 14.4707 10.173 14.5556 10.1036 14.6419C9.81153 15.0006 9.75091 15.0746 8.81193 15.262C8.54463 15.3153 7.83506 15.4567 7.82472 15.9381C7.82472 15.9408 7.82472 15.9435 7.82472 15.9468C7.82472 16.0448 7.85435 16.1362 7.90532 16.2128L7.90395 16.2108C8.11889 16.4742 8.42132 16.6629 8.76784 16.7363L8.77817 16.7383C9.05305 16.825 9.36994 16.875 9.69786 16.875C10.4557 16.875 11.1487 16.6096 11.6847 16.1695L11.6805 16.1728C11.664 16.4516 11.6551 16.7783 11.6551 17.107C11.6551 18.2759 11.7729 19.4188 11.9968 20.5244L11.9782 20.413C12.2413 21.3285 13.0914 21.9913 14.1027 22H14.1041C14.3583 21.998 14.6043 21.9693 14.8413 21.9173L14.8185 21.9213C16.1405 21.8073 17.1822 20.7844 17.2759 19.5082L17.2765 19.5002C17.4061 18.7747 17.6224 17.1044 17.7402 16.0828C17.7457 16.0395 17.7636 16.0008 17.7898 15.9688L17.7891 15.9695C17.7898 15.9688 17.849 15.9301 18.157 15.9948L18.1949 16.0008L18.4132 16.0195L18.4263 16.0201C18.4918 16.0228 18.5689 16.0248 18.6461 16.0248C19.3515 16.0248 20.0253 15.8914 20.6405 15.6487L20.6054 15.6607C21.1599 15.412 22.1595 14.8006 21.9783 14.2691Z" />
</svg>
