<svg
  width="24"
  height="24"
  viewBox="0 0 24 24"
  fill="currentColor"
  xmlns="http://www.w3.org/2000/svg">
  <title id="react-native-icon-title">React Native</title>
  <path
    d="M12.7778 20.8C12.7778 20.9945 12.6958 21.181 12.55 21.3185C12.4041 21.4561 12.2063 21.5333 12 21.5333C11.7937 21.5333 11.5959 21.4561 11.45 21.3185C11.3042 21.181 11.2222 20.9945 11.2222 20.8C11.2222 20.6055 11.3042 20.419 11.45 20.2815C11.5959 20.1439 11.7937 20.0667 12 20.0667C12.2063 20.0667 12.4041 20.1439 12.55 20.2815C12.6958 20.419 12.7778 20.6055 12.7778 20.8ZM10.8333 2.46667H13.1667C13.3821 2.46667 13.5556 2.6302 13.5556 2.83333C13.5556 3.03647 13.3821 3.2 13.1667 3.2H10.8333C10.6179 3.2 10.4444 3.03647 10.4444 2.83333C10.4444 2.6302 10.6179 2.46667 10.8333 2.46667ZM6.16667 1C5.52733 1 5 1.4972 5 2.1V21.9C5 22.5028 5.52733 23 6.16667 23H17.8333C18.4727 23 19 22.5028 19 21.9V2.1C19 1.4972 18.4727 1 17.8333 1H6.16667ZM6.16667 1.73333H17.8333C18.0558 1.73333 18.2222 1.89027 18.2222 2.1V21.9C18.2222 22.1097 18.0558 22.2667 17.8333 22.2667H6.16667C5.94422 22.2667 5.77778 22.1097 5.77778 21.9V2.1C5.77778 1.89027 5.94422 1.73333 6.16667 1.73333Z" />
  <path
    d="M12.058 12.8083C12.5936 12.8083 13.0278 12.3742 13.0278 11.8386C13.0278 11.303 12.5936 10.8688 12.058 10.8688C11.5224 10.8688 11.0883 11.303 11.0883 11.8386C11.0883 12.3742 11.5224 12.8083 12.058 12.8083Z" />
  <path
    d="M9.34269 13.7667L9.12809 13.7118C7.53409 13.3093 6.61974 12.6247 6.61974 11.8364C6.61974 11.0476 7.53463 10.3636 9.12809 9.96098L9.34269 9.90666L9.40299 10.1191C9.5641 10.6752 9.77052 11.2173 10.0202 11.7397L10.0663 11.8364L10.0202 11.9331C9.77025 12.4563 9.56326 12.9985 9.40299 13.5548L9.34269 13.7667ZM9.02921 10.4554C7.81823 10.7966 7.07447 11.317 7.07447 11.8364C7.07447 12.3547 7.81768 12.8757 9.02921 13.2164C9.17753 12.7448 9.35681 12.2835 9.56435 11.8364C9.35531 11.3885 9.17653 10.9272 9.02921 10.4554ZM14.7728 13.7667L14.7131 13.5537C14.5515 12.9975 14.345 12.4553 14.0954 11.9326L14.0492 11.8364L14.0954 11.7392C14.3453 11.2171 14.5512 10.6743 14.7131 10.118L14.7728 9.90611L14.9874 9.96044C16.582 10.363 17.4958 11.047 17.4958 11.8364C17.4958 12.6253 16.5814 13.3093 14.9874 13.7118L14.7728 13.7667ZM14.5501 11.8364C14.7674 12.3069 14.9483 12.7698 15.0863 13.2164C16.2978 12.8757 17.0416 12.3547 17.0416 11.8364C17.0416 11.317 16.2984 10.7971 15.0863 10.4554C14.9381 10.927 14.759 11.3884 14.5501 11.8364Z" />
  <path
    d="M9.02595 10.4532L8.96619 10.2413C8.51743 8.66144 8.65325 7.52978 9.33942 7.13535C10.0104 6.7469 11.0899 7.20598 12.2205 8.36589L12.3748 8.52453L12.2205 8.68263C11.8189 9.10025 11.4519 9.54975 11.123 10.0267L11.0616 10.1147L10.9552 10.1234C10.3769 10.1688 9.80326 10.2613 9.24 10.4L9.02595 10.4532ZM9.88543 7.44937C9.76373 7.44937 9.65616 7.47599 9.56543 7.52815C9.11559 7.78729 9.03627 8.68969 9.34594 9.90774C9.83001 9.80071 10.3184 9.72411 10.8106 9.68119C11.0956 9.27701 11.4065 8.89174 11.7413 8.52779C11.0334 7.83945 10.3651 7.44937 9.88543 7.44937ZM14.2301 16.6765C13.5847 16.6765 12.7556 16.1898 11.895 15.3064L11.7413 15.1483L11.895 14.9907C12.2967 14.5724 12.6639 14.1224 12.993 13.645L13.0539 13.5581L13.1593 13.5478C13.7378 13.5031 14.3116 13.411 14.875 13.2723L15.0896 13.218L15.1499 13.4304C15.5965 15.0092 15.4612 16.1425 14.7761 16.5369C14.6098 16.6312 14.4213 16.6794 14.2301 16.6765ZM12.3748 15.1445C13.0821 15.8328 13.7509 16.2234 14.2301 16.2234C14.3523 16.2234 14.4599 16.1963 14.5501 16.1447C15.0005 15.885 15.0803 14.981 14.7696 13.7629C14.286 13.8705 13.7971 13.9476 13.3038 13.9905C13.02 14.3954 12.7097 14.7809 12.3748 15.1445Z" />
  <path
    d="M15.0896 10.4532L14.875 10.3994C14.3116 10.2604 13.7378 10.1679 13.1593 10.1229L13.0539 10.1137L12.993 10.0256C12.6643 9.54841 12.2971 9.09888 11.8951 8.68155L11.7413 8.52345L11.8951 8.3659C13.0251 7.20653 14.1041 6.74745 14.7761 7.13536C15.4617 7.53032 15.5981 8.66199 15.1499 10.2413L15.0896 10.4532ZM13.3038 9.6812C13.8221 9.72738 14.3132 9.80507 14.7696 9.90775C15.0798 8.6897 15.0005 7.7873 14.5501 7.52761C14.1024 7.26846 13.2598 7.66506 12.3748 8.5278C12.7094 8.8918 13.0202 9.27645 13.3038 9.6812ZM9.88544 16.6766C9.69427 16.6793 9.50582 16.6311 9.33943 16.5369C8.65326 16.1425 8.51744 15.0098 8.96565 13.4304L9.02433 13.218L9.23892 13.2723C9.76265 13.4043 10.3396 13.4972 10.9546 13.5478L11.06 13.5581L11.1214 13.645C11.4496 14.122 11.8168 14.5724 12.2189 14.9907L12.3731 15.1483L12.2189 15.3064C11.3588 16.1903 10.5298 16.6766 9.88544 16.6766ZM9.34595 13.7635C9.03628 14.9815 9.1156 15.8855 9.56544 16.1452C10.0137 16.4006 10.8536 16.0067 11.7413 15.1445C11.4066 14.7804 11.0958 14.3952 10.8107 13.9911C10.3179 13.9475 9.82865 13.8715 9.34595 13.7635Z" />
  <path
    d="M12.058 14.0487C11.6848 14.0487 11.3018 14.0329 10.9171 14.0009L10.8107 13.9916L10.7493 13.9036C10.5324 13.5917 10.3283 13.2711 10.1375 12.9425C9.94818 12.6131 9.77219 12.2762 9.60999 11.9326L9.56435 11.8364L9.60999 11.7392C9.77243 11.3958 9.94791 11.059 10.1375 10.7297C10.326 10.4059 10.5319 10.0821 10.7493 9.76812L10.8107 9.68119L10.9171 9.67141C11.676 9.60785 12.4389 9.60785 13.1979 9.67141L13.3033 9.68174L13.3646 9.76866C13.7992 10.3928 14.1808 11.0521 14.5055 11.7397L14.5506 11.837L14.5055 11.9331C14.1817 12.6212 13.8 13.2806 13.3646 13.9042L13.3033 13.9922L13.1979 14.0014C12.8143 14.0324 12.4307 14.0487 12.058 14.0487ZM11.0617 13.5575C11.7326 13.6081 12.3835 13.6081 13.0539 13.5575C13.4281 13.0095 13.7608 12.4342 14.0492 11.8364C13.7619 11.2381 13.4291 10.6627 13.0539 10.1153C12.3908 10.0642 11.7247 10.0642 11.0617 10.1153C10.6861 10.6625 10.3533 11.2379 10.0664 11.8364C10.3553 12.4338 10.688 13.0091 11.0617 13.5575Z" />
</svg>
