<svg
  width="24"
  height="24"
  viewBox="0 0 24 24"
  fill="none"
  xmlns="http://www.w3.org/2000/svg">
  <title id="ruby-icon-title">Ruby</title>
  <path
    d="M16.3035 17.0776L20.5633 20.8582L12.1817 20.1997C13.8238 19.2076 15.1784 18.0229 16.1928 17.0797C16.2095 17.083 16.2272 17.0848 16.245 17.0848C16.2644 17.0847 16.284 17.0824 16.3035 17.0776ZM21.0182 19.3367L21.8027 9.06156C21.4146 10.053 20.8006 11.2076 20.0046 12.4405L21.0182 19.3367ZM16.5884 16.8441L20.8383 20.6161L19.7037 12.8968C18.7684 14.289 17.6453 15.7125 16.5884 16.8441ZM11.6245 20.5219C10.7091 21.0291 9.7669 21.433 8.81273 21.7279L18.6072 21.0692L11.6276 20.521L11.6245 20.5219ZM3.44482 15.5724L6.01038 21.5675L8.12194 14.5722L3.44482 15.5724ZM8.74489 14.2172L15.8885 16.5117L14.0656 9.28883L8.74489 14.2172ZM14.4654 8.57146L21.1246 8.12571L15.9181 3.87332L14.4654 8.57146ZM18.2532 2.01976L13.8834 2L15.826 3.36024L18.2532 2.01976ZM2.16802 13.0318L2.02423 17.2923L3.07231 15.3807L2.16802 13.0318ZM4.55532 14.7434C5.38597 14.7964 6.22506 14.6123 7.07151 14.2418C7.64168 13.9716 8.23319 13.6296 8.82688 13.2277C9.67836 12.6261 10.5365 11.8736 11.4009 11.017C14.5101 7.93561 15.7885 4.48957 14.4298 3.11748C14.1056 2.7903 13.6415 2.62307 13.0501 2.62048C11.2597 2.61276 8.5837 3.96053 6.30301 6.22172C4.12341 8.38219 2.71004 10.9465 2.70247 12.755C2.6998 13.3981 2.87771 13.9047 3.23116 14.261C3.54551 14.5786 3.99217 14.7073 4.55532 14.7434ZM11.0422 20.4201C11.1397 20.3697 11.2368 20.3187 11.3327 20.2668L8.45767 14.7195L6.29387 21.8868C6.31199 21.8844 6.45813 21.8669 6.45813 21.8669C6.64697 21.8428 6.8335 21.8152 7.01771 21.7839C8.20652 21.5813 9.38274 21.2102 10.5136 20.6806C10.6925 20.5969 10.8685 20.5099 11.0422 20.4201ZM16.9137 15.8446L16.9819 15.7663C17.0295 15.7105 17.0775 15.6536 17.1252 15.5965C17.1252 15.5965 17.273 15.4206 17.3304 15.3507C17.427 15.2339 17.523 15.1146 17.6194 14.9947C17.7079 14.8841 17.7962 14.7732 17.8844 14.6603C17.9768 14.5418 18.0693 14.4231 18.1611 14.3021C18.3688 14.0287 18.5788 13.742 18.8032 13.4254C19.0407 13.0903 19.2701 12.7532 19.4861 12.4222L19.0967 12.184C18.0627 11.5518 15.9845 10.2781 14.6187 9.43913L16.3861 16.4421C16.5507 16.2613 16.7245 16.0647 16.9137 15.8446ZM21.909 4.56971L16.4104 3.79768L21.6524 8.08454C21.8366 7.47692 21.9566 6.88765 22.0088 6.33183C22.0163 6.25392 22.0211 6.17557 22.0258 6.09664C22.0303 6.02402 22.0329 5.95113 22.0348 5.87808C22.0474 5.40468 22.005 4.96492 21.909 4.56971ZM19.7951 12.0901C19.8086 12.0724 19.8237 12.0524 19.8401 12.0284C19.9448 11.8803 20.0936 11.6378 20.2591 11.3458C20.7198 10.5335 21.288 9.37529 21.525 8.52288L14.686 8.97914C16.1125 9.85575 18.1963 11.1328 19.2323 11.7664L19.7846 12.1036C19.7879 12.0995 19.7913 12.095 19.7951 12.0901ZM11.5975 20.1828L11.6189 20.1708C13.1107 19.344 14.4441 18.327 15.9377 16.8736L8.66718 14.5285L11.5975 20.1828ZM2 18.0581C2.03211 19.0049 2.23303 19.7866 2.59762 20.3869L2.93711 16.3437L2 18.0581ZM3.32471 16.0765L2.93299 20.7427C3.49113 21.4728 4.23685 21.7988 5.34559 21.7988C5.45726 21.7988 5.57325 21.7958 5.69763 21.7897L5.50177 21.303C5.07793 20.2501 3.8685 17.2467 3.32471 16.0765ZM21.827 4.28167C21.7463 4.03507 21.6435 3.80737 21.5207 3.60308C21.0254 2.77905 20.1698 2.25182 18.977 2.03556L16.3122 3.5072L21.827 4.28167Z"
    fill="currentColor" />
</svg>
