<svg
  viewBox="0 0 24 24"
  fill="currentColor"
  xmlns="http://www.w3.org/2000/svg"
  xmlnsXlink="http://www.w3.org/1999/xlink"
  preserveAspectRatio="xMidYMid">
  <title id="storybook-icon-title">Storybook</title>
  <path
    fill-rule="evenodd"
    clip-rule="evenodd"
    d="M15.9454 1.21095L15.8417 3.70415C15.8401 3.74248 15.8519 3.78016 15.8751 3.81072C15.9302 3.88333 16.0337 3.89754 16.1063 3.84246L17.0748 3.10781L17.8928 3.75219C17.9234 3.77634 17.9616 3.78884 18.0006 3.78748C18.0917 3.7843 18.163 3.70789 18.1598 3.61682L18.0711 1.07809L19.2855 1.00219C19.8952 0.964086 20.4203 1.42745 20.4585 2.03714C20.4599 2.06011 20.4606 2.08312 20.4606 2.10614V21.8939C20.4606 22.5048 19.9654 23 19.3545 23C19.338 23 19.3214 22.9996 19.3049 22.9989L4.54065 22.3358C3.96564 22.31 3.50654 21.8475 3.48495 21.2723L2.80343 3.11298C2.78093 2.51325 3.24078 2.00499 3.83976 1.96755L15.9454 1.21095ZM16.4168 9.21391C16.0277 9.51619 13.129 9.72244 13.129 9.2921C13.1902 7.65001 12.4551 7.57803 12.0466 7.57803C11.6586 7.57803 11.0051 7.69532 11.0051 8.57501C11.0051 9.47145 11.9601 9.97753 13.0811 10.5715C14.6734 11.4154 16.6006 12.4367 16.6006 15.0065C16.6006 17.4696 14.5993 18.8303 12.0466 18.8303C9.41229 18.8303 7.11015 17.7645 7.37016 14.0693C7.47226 13.6354 10.8214 13.7386 10.8214 14.0693C10.7805 15.5941 11.1277 16.0426 12.0058 16.0426C12.6797 16.0426 12.986 15.6712 12.986 15.0456C12.986 14.0989 11.991 13.5403 10.8463 12.8976C9.29647 12.0274 7.47226 11.0032 7.47226 8.6532C7.47226 6.30736 9.08555 4.74347 11.9649 4.74347C14.8443 4.74347 16.4168 6.2834 16.4168 9.21391Z" />
</svg>
