<svg
  width="24"
  height="24"
  viewBox="0 0 24 24"
  fill="currentColor"
  xmlns="http://www.w3.org/2000/svg">
  <title id="teaching-icon-title">Teaching</title>
  <path
    d="M4.06861 2.01093C3.63866 2.07343 3.26701 2.36304 3.0942 2.76933C3.07754 2.80892 3.05048 2.89017 3.03382 2.94955L3.00467 3.05685L3.00155 8.75006C2.99842 15.0277 2.99322 14.5381 3.06297 14.7433C3.20559 15.1704 3.53872 15.4704 3.99365 15.5809C4.05924 15.5965 4.17584 15.5996 5.1086 15.6048L6.15172 15.61L5.91853 16.2611C5.79048 16.6195 5.65515 16.9966 5.61871 17.0997C5.54271 17.3143 4.97639 18.8957 4.42256 20.4438L4.04571 21.496V21.6001C4.04571 21.6908 4.04883 21.7116 4.07381 21.7637C4.12378 21.87 4.21019 21.946 4.32783 21.9845C4.37571 22.0002 4.49543 22.0012 5.68638 21.9991L6.99183 21.996L7.05117 21.9679C7.12925 21.9314 7.21045 21.8543 7.24585 21.7824C7.26146 21.7512 7.41241 21.3376 7.58106 20.8636L7.88712 20.001H11.8597C15.6345 20.001 15.8333 20.0021 15.8406 20.0188C15.8448 20.0292 15.8635 20.0823 15.8823 20.1365C16.0561 20.6303 16.4632 21.7574 16.4809 21.7929C16.5142 21.8585 16.5881 21.9262 16.6662 21.9627L16.7359 21.996L18.0393 21.9991C19.3364 22.0012 19.3437 22.0012 19.4083 21.9793C19.5457 21.9335 19.6321 21.8439 19.6716 21.7054C19.7081 21.5793 19.7279 21.6418 19.1522 20.0271C18.8617 19.2135 18.5962 18.4707 18.5619 18.3759C18.5286 18.2811 18.2923 17.6206 18.0383 16.907L17.576 15.61L18.6181 15.6038C19.6456 15.5986 19.6623 15.5975 19.7518 15.5757C20.2796 15.4434 20.6481 15.035 20.7179 14.5047C20.7262 14.4349 20.7283 13.0036 20.7262 8.73964L20.7231 3.06727L20.7002 2.97872C20.5898 2.53598 20.2869 2.20261 19.8694 2.06302C19.6633 1.99426 20.367 1.99947 11.8535 2.00051C7.605 2.00155 4.10192 2.00572 4.06861 2.01093ZM7.78822 6.61967C7.81946 6.63529 7.86006 6.66029 7.87879 6.67384C7.95479 6.73217 7.95063 6.7228 8.50133 8.125C8.54506 8.23647 8.60648 8.39169 8.63667 8.46878C8.66686 8.54588 8.79386 8.86674 8.91775 9.18239C9.04163 9.497 9.18321 9.85641 9.23214 9.97933C9.28003 10.1023 9.34874 10.2762 9.38413 10.3648C9.44763 10.5231 9.44868 10.5283 9.44868 10.6252C9.44868 10.7106 9.44451 10.7325 9.42057 10.7836C9.31334 11.0138 9.03122 11.0919 8.82614 10.9492C8.73765 10.8867 8.70954 10.8346 8.55859 10.4471C8.48259 10.2502 8.41493 10.0825 8.40972 10.0752C8.40244 10.0658 8.23171 10.0627 7.62166 10.0627C7.01161 10.0627 6.84088 10.0658 6.8336 10.0752C6.82839 10.0825 6.76177 10.2471 6.68577 10.4408C6.61081 10.6346 6.53794 10.8107 6.52441 10.8315C6.48485 10.895 6.42343 10.9482 6.3516 10.9836C6.29018 11.0128 6.27456 11.0159 6.18503 11.0159C6.0955 11.0159 6.07989 11.0128 6.01638 10.9825C5.93206 10.943 5.86439 10.8763 5.82379 10.794C5.79777 10.7409 5.79464 10.7231 5.79464 10.6304V10.5263L5.95288 10.1252C6.18191 9.54492 6.53066 8.66047 6.67952 8.28127C7.10739 7.19263 7.25001 6.83323 7.26979 6.79156C7.29998 6.73009 7.36765 6.66446 7.43636 6.62904C7.51443 6.58945 7.5415 6.5832 7.64248 6.58737C7.71431 6.5905 7.74138 6.5957 7.78822 6.61967ZM12.4448 6.60716C12.705 6.67071 12.9164 6.78739 13.0933 6.96345C13.2339 7.10408 13.3432 7.27597 13.4077 7.46036C13.5587 7.88853 13.4671 8.38544 13.1735 8.7261C13.1433 8.76048 13.1183 8.79277 13.1183 8.79694C13.1183 8.80111 13.1454 8.83861 13.1787 8.88028C13.4525 9.21989 13.5451 9.64285 13.4358 10.0502C13.3213 10.4783 12.9955 10.8221 12.577 10.9565C12.3917 11.0169 12.4052 11.0159 11.588 11.0159H10.8333L10.7739 10.9878C10.6636 10.9367 10.5813 10.8398 10.5511 10.7273C10.5303 10.6471 10.5293 6.95928 10.5511 6.8801C10.5792 6.77385 10.6396 6.69259 10.7302 6.63946C10.827 6.58216 10.8051 6.58425 11.6192 6.58737C12.2824 6.58945 12.3823 6.59258 12.4448 6.60716ZM16.8921 6.75509C17.2044 6.80614 17.4646 6.93323 17.7343 7.16555C17.8425 7.25826 17.8873 7.3166 17.9175 7.40619C17.981 7.59163 17.8883 7.80102 17.7041 7.89061C17.6489 7.9177 17.6302 7.92082 17.5427 7.92082C17.4168 7.92186 17.3647 7.89894 17.2367 7.78852C17.0555 7.62913 16.9327 7.56766 16.7474 7.54266C16.51 7.50933 16.2643 7.60308 16.0634 7.80206C15.8937 7.97082 15.7917 8.14897 15.7167 8.40836C15.6616 8.60005 15.6407 8.90528 15.6689 9.11467C15.7313 9.58451 15.9791 9.97621 16.3174 10.1408C16.4371 10.1991 16.5308 10.221 16.6578 10.221C16.8671 10.221 17.043 10.146 17.2262 9.97725C17.3147 9.89599 17.3543 9.87099 17.4334 9.84911C17.6146 9.79598 17.8155 9.88974 17.9029 10.0679C17.93 10.1241 17.9331 10.1408 17.9331 10.2294C17.9331 10.3189 17.93 10.3346 17.9008 10.3971C17.8176 10.5731 17.4678 10.8294 17.1669 10.9357C16.9847 11.0003 16.8827 11.0159 16.6578 11.0148C16.4382 11.0148 16.3434 11.0003 16.1717 10.943C15.5856 10.7471 15.1119 10.195 14.9349 9.50533C14.8756 9.27198 14.8621 9.16051 14.8621 8.88028C14.8621 8.6063 14.8745 8.50004 14.9287 8.27606C15.0599 7.73851 15.3971 7.24785 15.8104 6.99157C16.0291 6.85614 16.2435 6.77801 16.4861 6.74676C16.5673 6.73634 16.8067 6.74051 16.8921 6.75509ZM14.4685 16.1726C14.5789 16.482 14.7132 16.8591 14.7673 17.0112C14.8215 17.1633 14.9766 17.5967 15.1119 17.9748C15.2472 18.353 15.3742 18.7072 15.393 18.7614C15.4128 18.8155 15.4544 18.9322 15.4856 19.0207C15.5179 19.1083 15.5439 19.1843 15.5439 19.1895C15.5439 19.1947 13.9657 19.1989 11.8639 19.1989C9.8401 19.1989 8.18382 19.1947 8.18382 19.1906C8.18382 19.1853 8.22858 19.0551 8.28376 18.9009C8.42846 18.4926 8.8657 17.2643 8.9115 17.1362C8.93336 17.0758 9.06557 16.707 9.20403 16.3153L9.45804 15.6048L11.8628 15.6069L14.2676 15.61L14.4685 16.1726Z" />
  <path
    d="M7.49881 8.37711C7.43531 8.53963 7.33121 8.80319 7.26875 8.96362C7.20524 9.12405 7.15319 9.25844 7.15319 9.26261C7.15319 9.26782 7.36452 9.27094 7.62166 9.27094C7.87983 9.27094 8.09012 9.26782 8.09012 9.26469C8.09012 9.24907 7.6279 8.08334 7.62166 8.08334C7.61749 8.08334 7.56232 8.21564 7.49881 8.37711Z" />
  <path
    d="M11.3382 7.88644V8.39586H11.8004C12.3146 8.39586 12.3313 8.39378 12.4417 8.32294C12.5926 8.22605 12.6811 8.0625 12.6811 7.88227C12.6801 7.63433 12.4947 7.4239 12.2449 7.3864C12.197 7.3791 12.0117 7.37494 11.7525 7.37494L11.3382 7.37702V7.88644Z" />
  <path
    d="M11.3402 9.71056L11.3434 10.2242L11.7338 10.2273C12.1866 10.2304 12.2886 10.2231 12.3854 10.1773C12.7061 10.0241 12.7821 9.60014 12.5343 9.35428C12.502 9.32199 12.4469 9.28032 12.4115 9.26261C12.3011 9.20323 12.2553 9.19802 11.7723 9.19802H11.3382L11.3402 9.71056Z" />
</svg>
