<svg xmlns="http://www.w3.org/2000/svg" fill="currentColor" viewBox="0 0 24 24">
  <title id="webpack-icon-title">Webpack</title>
  <path
    opacity="0.4"
    d="M21.3845 17.9565L12.3953 23V19.0719L17.991 16.0158L21.3845 17.9548V17.9565ZM22 17.4033V6.85628L18.7112 8.74154V15.5216L22 17.4033ZM2.61552 17.9565L11.6047 23V19.0719L6.00902 16.0158L2.61552 17.9565ZM2 17.4033V6.85628L5.28881 8.74154V15.5216L2 17.4033ZM2.38628 6.17236L11.6047 1V4.79557L5.69675 8.01823L5.64982 8.04329L2.38628 6.17236ZM21.6137 6.17236L12.3953 1V4.79557L18.3032 8.01823L18.3502 8.04508L21.6137 6.17415V6.17236Z" />
  <path
    d="M11.5995 18L6 15.1437V9.50704L11.5995 12.4952V18ZM12.4005 18L18 15.147V9.50704L12.4005 12.4952V18ZM6.37854 8.87324L12 6L17.6215 8.85634L12 11.8546L6.37854 8.85634V8.87324Z" />
</svg>
