<svg viewBox="0 0 24 24" fill="currentColor" xmlns="http://www.w3.org/2000/svg">
  <title id="wnec-icon-title">Western New Engand University</title>
  <path
    fill-rule="evenodd"
    clip-rule="evenodd"
    d="M6.30921 5H2.0329H2L4.46711 19.0461H9.75808C9.74203 19.03 9.73028 19.0081 9.73028 18.9803V17.3026H9.69738C9.66448 17.3026 9.5987 17.2697 9.5987 17.2039C9.58554 17.1776 9.56186 17.1513 9.53817 17.125C9.50264 17.0855 9.46712 17.0461 9.46712 17.0066V16.9408C9.46712 16.9079 9.50001 16.8421 9.5658 16.8421H9.89475V16.7434C9.89475 16.7105 9.92765 16.6447 9.99344 16.6447H10.6278L10.6513 16.5392V14.0132C10.6184 14.0132 10.5855 13.9474 10.5855 13.9145V13.6513H10.5526C10.5197 13.6513 10.454 13.6184 10.454 13.5526V13.4539C10.3882 13.3882 10.3224 13.2566 10.454 13.2566C10.6842 13.2566 10.9474 13.125 10.9803 12.8618C11.0132 12.5987 11.1447 12.3684 11.375 12.2368V10.9868C11.3421 10.9868 11.2763 10.9539 11.2763 10.8882C11.2105 10.7895 11.1447 10.6579 11.2763 10.6579C11.4079 10.6579 11.5066 10.625 11.5724 10.4934C11.5911 10.4606 11.6079 10.4292 11.6237 10.3994C11.7193 10.2197 11.7837 10.0987 12.0658 10.0987V7.5329C12.0658 7.5329 11.9671 7.56579 11.9342 7.56579V7.69737L11.7369 7.79605L11.8026 7.59869C11.8026 7.56579 11.7369 7.43421 11.7369 7.43421L11.9342 7.33553H12V7.40132L12.0658 7.36842V7.26974C12 7.23684 12 7.20395 12 7.13816V7.10526H11.9671C11.8684 7.13816 11.9671 6.97369 11.9671 6.97369C12 6.94079 12 6.9079 12 6.87501V6.875C11.9342 6.85307 11.8977 6.8019 11.8611 6.75073C11.8429 6.72515 11.8246 6.69956 11.8026 6.67763C11.7182 6.53685 11.5855 6.54067 11.4459 6.54469C11.4224 6.54537 11.3987 6.54605 11.375 6.54605V6.48026C11.3964 6.46959 11.4186 6.45805 11.4414 6.4462C11.5591 6.38505 11.6924 6.31579 11.8026 6.31579C11.8684 6.31579 11.9342 6.34869 11.9342 6.41447C11.9445 6.43504 11.9532 6.4532 11.961 6.46957L11.961 6.46966L11.9611 6.46976C12.0033 6.558 12.0207 6.59443 12.1316 6.67763C12.1645 6.61184 12.2303 6.48026 12.329 6.54605C12.3509 6.54605 12.3728 6.51681 12.3947 6.48757C12.4057 6.47295 12.4167 6.45834 12.4276 6.44737C12.5592 6.31579 12.625 6.2829 12.625 6.51316C12.625 6.51316 12.6579 6.61184 12.5921 6.61184H12.4934C12.4276 6.61184 12.3948 6.67763 12.3948 6.67763C12.35 6.70744 12.3323 6.75074 12.3141 6.79531C12.2921 6.84913 12.2694 6.9048 12.1974 6.94079C12.1645 6.94079 12.1316 6.97369 12.1316 7.00658C12.1974 7.00658 12.2632 7.07237 12.2632 7.13816H12.2961C12.2961 7.17105 12.2632 7.23684 12.2303 7.26974C12.2303 7.26974 12.3948 7.20395 12.3619 7.20395V7.13816C12.3838 7.14912 12.413 7.16009 12.4423 7.17105C12.5007 7.19298 12.5592 7.21491 12.5592 7.23684L12.3619 7.5V7.40132L12.2303 7.46711V10.0994C12.4912 10.1103 12.5581 10.253 12.6229 10.3914C12.6864 10.5267 12.7479 10.6579 12.9869 10.6579C13.1513 10.6579 13.0526 10.7895 12.9869 10.8553C12.9869 10.9211 12.954 10.9868 12.8882 10.9868V12.2368C13.1184 12.3684 13.25 12.5987 13.2829 12.8618C13.3158 13.125 13.5461 13.2566 13.8092 13.2566C14.0724 13.2566 13.9079 13.3882 13.8092 13.4539V13.5526C13.8092 13.5855 13.7763 13.6513 13.7105 13.6513H13.6776V13.9145C13.6776 13.9474 13.6776 13.9803 13.6119 14.0132V16.6447H14.2698C14.3026 16.6447 14.3684 16.6776 14.3684 16.7434V16.8421H14.6974C14.7303 16.8421 14.7961 16.875 14.7961 16.9408V17.0066C14.7961 17.0582 14.7353 17.1098 14.6932 17.1456C14.6817 17.1554 14.6716 17.164 14.6645 17.1711C14.6645 17.2368 14.6316 17.3026 14.5658 17.3026H14.5329V18.9803H14.5C14.5 18.9978 14.4906 19.0248 14.4719 19.0461H19.5L22 5H18.0197L16.6382 13.7829H16.6053L14.6645 5H9.73026L7.75658 13.7829H7.72368L6.30921 5Z" />
</svg>
