<svg
  xmlns="http://www.w3.org/2000/svg"
  viewBox="0 0 1595 878.35"
  fill="currentColor">
  <title id="virsaviya-efraim-signature">Virsaviya Efraim Signature</title>
  <path
    d="M1591.93,521.41c-3.74-8.68-11-12.66-13.84-14.25a34.57,34.57,0,0,0-10.76-3.8,587.44,587.44,0,0,1-138.19,53.88c-95.42,23.82-157,34-209,13.08-26-10.47-49.37-32.08-88.6-23.48-1.65.36-20.53,10.7-21.39,10.93,1-3,20.6-39.7,23.1-44.74,21-42.55,25.34-47.95,41.39-76,18.27-31.9,42.66-75,60-130.65A488.62,488.62,0,0,0,1248,253.68a22.55,22.55,0,0,0-1.42-3c-7-12.3-27.85-20.06-38.3-11.75-1.32,1.05-6,5.18-6.68,15.45-3.13,9-7.65,21.7-13.39,36.82-9.2,24.25-13.8,36.38-19.61,48.84-8.24,17.64-19.64,36.36-42.45,73.79-6.6,10.83-9.83,16.3-13.43,21.66-4.14,6.16-28.6,48.79-40.71,63.56-7,8.51-11.75,14.37-32.08,35.46-40.12,41.62-60.18,62.43-82.78,84-32,30.55-48.26,46-73.82,66.58-9.54,7.7-27.51,20.54-62.88,47-24.78,18.53-35.33,26.43-51.2,35.85-23,13.63-63,34.57-77.23,25.6-7.77-4.89-8.24-19.57-.94-40.47,8.42-24.1,14.28-35.52,30.07-62.25a408.47,408.47,0,0,1,38.1-54.37c37.77-44.69,79.79-76.2,83.46-78.93a486.78,486.78,0,0,1,104-58.81,98.9,98.9,0,0,0,16.91-5.85c12.1-5.27,6.3-26.07-2.09-32.35-40.39-25.65-89.83,25.58-134.75-2.12,0,0-2.73-1.26-3.7-3.26-6.28-12.87-1-23.49,10.42-39,53.38-72.57,150.18-107.22,150.18-107.22,43.28-23.09,89.8-39.53,135.13-56.73,20.59-13.92-11.94-41-28.7-29.14C1016,242.8,923.3,271.11,828.19,359.5c-23.26,21.62-56.11,70.39-40,107.34,9.39,21.51,32.86,31.62,47.69,36.26A693.15,693.15,0,0,0,749.61,576c-25.78,25.68-50.22,62.2-69.53,93-9.42,15-15.51,24.46-22,43.64-11.37,33.78-25.64,94.82,9.26,115.13,30.27,17.62,90-4.49,114.76-16.72,26.49-13.13,57.28-33.51,118.89-84.25,1.15-.95,5.51-4.5,11.41-9.42,33.78-28.16,70.82-59.29,108.95-103.21,4-4.56,10.57-12.3,18.53-22.3-17.31,40.2-29.94,65.28-39.59,82.14a67,67,0,0,0-8.42,23.79c-.87,5.9-4.8,32.56,10.75,41.85,13.56,8.11,32.1-2.89,33.31-3.64,4.87-4.91,3.21-12,5.16-18.21a218.61,218.61,0,0,1,18-38.28c17.89-29.43,47.66-77.18,91.88-87.77,22.77-5.46,37.47.3,54.19,10.12,28.53,16.77,79.52,22.76,121.27,21.49,105-3.2,162.62-28.52,267.15-85.6C1596.22,536.32,1594.92,528.38,1591.93,521.41Z" />
  <path
    d="M729,43.9a17.93,17.93,0,0,0-2.2-3c-5.31-5.26-9.66-11.18-16.2-15.55a4.53,4.53,0,0,1-1.71-1.44c-69.5-49.29-134.67-10.85-186.45,12.57-.82.38-38.47,23.27-39.39,23.59-30.58,19.59-36.8,25.65-70.46,53.52-2.9,2.4-20.05,19.05-20.05,19.05s-16.82,14-48.64,55.56c-38,49.55-50.94,70.93-78.94,126.66-1.47,3.88-18.53,44.32-20.28,48.09C241,371.78,227.9,404.5,224,416.45c.44-1.45.52-1.75-.58,1.84-17.19,53.09-37,105.59-52.07,158.85-3.36,11.84-4,18.69-8.56,33.88-14.79,49.62-24,101.35-43.41,149.2-30.46-91-40-188.31-75.3-277.78-3.49-8.54-12.78-13.21-20-18.21-9.34-5.19-25-.9-24,13.53.08,1.91.83,3.13,1,5.74,2.35,10.79,5.85,17.19,8.11,25.8a112.73,112.73,0,0,1,3.65,11.35C29.27,583.82,43.4,648.69,59,711.07l34.09,124.1c7.82,21.18,16.69,52.12,45.78,40.74,11.61-5.27,11.46-26.62,13.29-38.11,2.67-16.77,6.24-35.74,8.28-52.71.38-3.69,3.38-15.63,4.12-19.26,9-50.66,19.87-89.05,32.29-136.8,16.6-63.79,36.19-126.61,54.45-189.68a5.62,5.62,0,0,1,.59-1.37c24.14-76.72,56.32-154.72,108.71-217.33,39.53-47.25,82.52-87.14,129.46-124.08A63.76,63.76,0,0,1,496,92.05C550.31,57.88,628,9.25,687.7,56.51c34.32,27.42,44.5,74.72,55,115.56,0,0,12.76-32.34,13.29-46.69C757.14,94.18,743.74,66.74,729,43.9Z" />
  <path
    d="M599.73,600.19c-5.61-7.55-10.12-14.54-20.92-10.44-68.71,39-169.49,4-231.76-34.52C191.56,604.72,646.8,710.26,599.73,600.19Z" />
  <path
    d="M355.63,431.68c-3-8.74-5.16-13-15-15.76a50.48,50.48,0,0,0-16.4-1.41c-12.79,1.34-16.36,2.71-19.75,9.27-2.68,5.2-2.07,11.78-2,12,1.59,10.95,2.45,14.26,8.69,19.2,9.56,7.57,22.42,9,31.46,1.48C346.58,453.11,358.25,439.18,355.63,431.68Z" />
  <path
    d="M1362.37,449.32c1.23,2,3.64,3.37,5.71,4.72a5.11,5.11,0,0,0,3.54.65c14.72-6.38,10.4-38.2-6.18-38.56-6.4-.14-14.07,7.29-14,12.05a4.94,4.94,0,0,0,.43,2.18C1355.33,436.72,1358.62,443.17,1362.37,449.32Z" />
</svg>
